<svg id="svg" version="1.1" xmlns="http://www.w3.org/2000/svg" xmlns:xlink="http://www.w3.org/1999/xlink" width="400" height="400" viewBox="0, 0, 400,400"><g id="svgg"><path id="path0" d="M0.000 50.000 L 0.000 100.000 29.600 100.000 L 59.200 100.000 59.200 99.000 C 59.200 98.378,59.427 98.000,59.800 98.000 C 60.130 98.000,60.400 97.730,60.400 97.400 C 60.400 97.070,60.670 96.800,61.000 96.800 C 61.433 96.800,61.600 96.356,61.600 95.200 C 61.600 94.320,61.780 93.600,62.000 93.600 C 62.263 93.600,62.400 84.533,62.400 67.200 C 62.400 44.000,62.473 40.800,63.000 40.800 C 63.433 40.800,63.600 40.356,63.600 39.200 C 63.600 38.320,63.780 37.600,64.000 37.600 C 64.220 37.600,64.400 37.150,64.400 36.600 C 64.400 35.978,64.627 35.600,65.000 35.600 C 65.330 35.600,65.600 35.330,65.600 35.000 C 65.600 34.670,65.870 34.400,66.200 34.400 C 66.530 34.400,66.800 34.207,66.800 33.971 C 66.800 33.418,67.818 32.400,68.371 32.400 C 68.607 32.400,68.800 32.130,68.800 31.800 C 68.800 31.427,69.178 31.200,69.800 31.200 C 70.350 31.200,70.800 31.020,70.800 30.800 C 70.800 30.580,71.520 30.400,72.400 30.400 C 73.556 30.400,74.000 30.233,74.000 29.800 C 74.000 29.268,88.333 29.200,200.600 29.200 C 312.867 29.200,327.200 29.268,327.200 29.800 C 327.200 30.233,327.644 30.400,328.800 30.400 C 329.680 30.400,330.400 30.580,330.400 30.800 C 330.400 31.020,330.850 31.200,331.400 31.200 C 331.950 31.200,332.400 31.393,332.400 31.629 C 332.400 32.182,333.418 33.200,333.971 33.200 C 334.207 33.200,334.400 33.470,334.400 33.800 C 334.400 34.130,334.670 34.400,335.000 34.400 C 335.330 34.400,335.600 34.670,335.600 35.000 C 335.600 35.330,335.780 35.600,336.000 35.600 C 336.220 35.600,336.400 36.050,336.400 36.600 C 336.400 37.222,336.627 37.600,337.000 37.600 C 337.433 37.600,337.600 38.044,337.600 39.200 C 337.600 40.080,337.780 40.800,338.000 40.800 C 338.263 40.800,338.400 49.867,338.400 67.200 C 338.400 90.400,338.473 93.600,339.000 93.600 C 339.433 93.600,339.600 94.044,339.600 95.200 C 339.600 96.356,339.767 96.800,340.200 96.800 C 340.530 96.800,340.800 97.070,340.800 97.400 C 340.800 97.730,340.980 98.000,341.200 98.000 C 341.420 98.000,341.600 98.450,341.600 99.000 L 341.600 100.000 370.800 100.000 L 400.000 100.000 400.000 50.000 L 400.000 0.000 200.000 0.000 L 0.000 0.000 0.000 50.000 M91.600 255.629 C 91.600 256.182,90.582 257.200,90.029 257.200 C 89.793 257.200,89.600 257.470,89.600 257.800 C 89.600 258.130,89.330 258.400,89.000 258.400 C 88.469 258.400,88.400 265.200,88.400 317.200 C 88.400 369.200,88.469 376.000,89.000 376.000 C 89.330 376.000,89.600 376.270,89.600 376.600 C 89.600 376.930,89.793 377.200,90.029 377.200 C 90.582 377.200,91.600 378.218,91.600 378.771 C 91.600 379.075,123.298 379.200,200.400 379.200 C 296.844 379.200,309.200 379.132,309.200 378.600 C 309.200 378.270,309.470 378.000,309.800 378.000 C 310.130 378.000,310.400 377.820,310.400 377.600 C 310.400 377.380,310.670 377.200,311.000 377.200 C 311.330 377.200,311.600 376.930,311.600 376.600 C 311.600 376.270,311.780 376.000,312.000 376.000 C 312.265 376.000,312.400 356.133,312.400 317.200 C 312.400 278.267,312.265 258.400,312.000 258.400 C 311.780 258.400,311.600 258.130,311.600 257.800 C 311.600 257.470,311.330 257.200,311.000 257.200 C 310.670 257.200,310.400 257.020,310.400 256.800 C 310.400 256.580,310.130 256.400,309.800 256.400 C 309.470 256.400,309.200 256.130,309.200 255.800 C 309.200 255.268,296.844 255.200,200.400 255.200 C 123.298 255.200,91.600 255.325,91.600 255.629 M0.000 367.200 L 0.000 400.000 31.200 400.000 L 62.400 400.000 62.400 370.400 C 62.400 350.933,62.263 340.800,62.000 340.800 C 61.780 340.800,61.600 340.260,61.600 339.600 C 61.600 338.800,61.400 338.400,61.000 338.400 C 60.627 338.400,60.400 338.022,60.400 337.400 C 60.400 336.778,60.173 336.400,59.800 336.400 C 59.427 336.400,59.200 336.022,59.200 335.400 L 59.200 334.400 29.600 334.400 L 0.000 334.400 0.000 367.200 M341.600 335.400 C 341.600 335.950,341.420 336.400,341.200 336.400 C 340.980 336.400,340.800 336.850,340.800 337.400 C 340.800 338.022,340.573 338.400,340.200 338.400 C 339.800 338.400,339.600 338.800,339.600 339.600 C 339.600 340.400,339.400 340.800,339.000 340.800 C 338.472 340.800,338.400 344.356,338.400 370.400 L 338.400 400.000 369.200 400.000 L 400.000 400.000 400.000 367.200 L 400.000 334.400 370.800 334.400 L 341.600 334.400 341.600 335.400 " stroke="none" fill="#fcfcfc" fill-rule="evenodd"></path><path id="path1" d="M75.200 38.000 C 75.200 38.220,74.930 38.400,74.600 38.400 C 74.270 38.400,74.000 38.670,74.000 39.000 C 74.000 39.330,73.730 39.600,73.400 39.600 C 73.070 39.600,72.800 39.793,72.800 40.029 C 72.800 40.582,71.782 41.600,71.229 41.600 C 70.928 41.600,70.800 49.262,70.800 67.200 C 70.800 89.689,70.873 92.800,71.400 92.800 C 71.833 92.800,72.000 93.244,72.000 94.400 C 72.000 95.280,72.180 96.000,72.400 96.000 C 72.620 96.000,72.800 96.450,72.800 97.000 C 72.800 97.622,73.027 98.000,73.400 98.000 C 73.773 98.000,74.000 98.378,74.000 99.000 C 74.000 99.622,74.227 100.000,74.600 100.000 C 74.930 100.000,75.200 100.270,75.200 100.600 C 75.200 101.132,89.400 101.200,200.600 101.200 C 311.800 101.200,326.000 101.132,326.000 100.600 C 326.000 100.270,326.270 100.000,326.600 100.000 C 326.973 100.000,327.200 99.622,327.200 99.000 C 327.200 98.450,327.380 98.000,327.600 98.000 C 327.820 98.000,328.000 97.550,328.000 97.000 C 328.000 96.378,328.227 96.000,328.600 96.000 C 329.033 96.000,329.200 95.556,329.200 94.400 C 329.200 93.244,329.367 92.800,329.800 92.800 C 330.327 92.800,330.400 89.689,330.400 67.200 C 330.400 44.711,330.327 41.600,329.800 41.600 C 329.470 41.600,329.200 41.420,329.200 41.200 C 329.200 40.980,328.930 40.800,328.600 40.800 C 328.270 40.800,328.000 40.530,328.000 40.200 C 328.000 39.870,327.820 39.600,327.600 39.600 C 327.380 39.600,327.200 39.330,327.200 39.000 C 327.200 38.670,326.930 38.400,326.600 38.400 C 326.270 38.400,326.000 38.220,326.000 38.000 C 326.000 37.734,283.933 37.600,200.600 37.600 C 117.267 37.600,75.200 37.734,75.200 38.000 M75.200 217.200 C 75.200 217.420,74.660 217.600,74.000 217.600 C 73.340 217.600,72.800 217.793,72.800 218.029 C 72.800 218.582,71.782 219.600,71.229 219.600 C 70.993 219.600,70.800 219.870,70.800 220.200 C 70.800 220.530,70.530 220.800,70.200 220.800 C 69.870 220.800,69.600 220.993,69.600 221.229 C 69.600 221.782,68.582 222.800,68.029 222.800 C 67.793 222.800,67.600 223.340,67.600 224.000 C 67.600 224.660,67.420 225.200,67.200 225.200 C 66.980 225.200,66.800 225.650,66.800 226.200 C 66.800 226.822,66.573 227.200,66.200 227.200 C 65.870 227.200,65.600 227.380,65.600 227.600 C 65.600 227.820,65.330 228.000,65.000 228.000 C 64.622 228.000,64.400 228.381,64.400 229.029 C 64.400 230.270,63.556 231.200,62.429 231.200 C 61.959 231.200,61.600 231.460,61.600 231.800 C 61.600 232.130,61.330 232.400,61.000 232.400 C 60.670 232.400,60.400 232.580,60.400 232.800 C 60.400 233.020,59.950 233.200,59.400 233.200 C 58.778 233.200,58.400 233.427,58.400 233.800 C 58.400 234.173,58.022 234.400,57.400 234.400 C 56.778 234.400,56.400 234.627,56.400 235.000 C 56.400 235.330,56.130 235.600,55.800 235.600 C 55.470 235.600,55.200 235.780,55.200 236.000 C 55.200 236.220,54.930 236.400,54.600 236.400 C 54.270 236.400,54.000 236.593,54.000 236.829 C 54.000 237.382,52.982 238.400,52.429 238.400 C 52.193 238.400,52.000 238.670,52.000 239.000 C 52.000 239.330,51.820 239.600,51.600 239.600 C 51.380 239.600,51.200 240.050,51.200 240.600 C 51.200 241.222,50.973 241.600,50.600 241.600 C 50.076 241.600,50.000 243.778,50.000 258.800 C 50.000 273.822,50.076 276.000,50.600 276.000 C 50.973 276.000,51.200 276.378,51.200 277.000 C 51.200 277.550,51.380 278.000,51.600 278.000 C 51.820 278.000,52.000 278.270,52.000 278.600 C 52.000 278.930,52.270 279.200,52.600 279.200 C 52.930 279.200,53.200 279.393,53.200 279.629 C 53.200 280.182,54.218 281.200,54.771 281.200 C 55.007 281.200,55.200 281.470,55.200 281.800 C 55.200 282.130,55.470 282.400,55.800 282.400 C 56.130 282.400,56.400 282.580,56.400 282.800 C 56.400 283.020,56.850 283.200,57.400 283.200 C 58.022 283.200,58.400 283.427,58.400 283.800 C 58.400 284.173,58.778 284.400,59.400 284.400 C 60.022 284.400,60.400 284.627,60.400 285.000 C 60.400 285.330,60.670 285.600,61.000 285.600 C 61.330 285.600,61.600 285.780,61.600 286.000 C 61.600 286.220,62.050 286.400,62.600 286.400 C 63.222 286.400,63.600 286.627,63.600 287.000 C 63.600 287.330,63.780 287.600,64.000 287.600 C 64.220 287.600,64.400 288.050,64.400 288.600 C 64.400 289.222,64.627 289.600,65.000 289.600 C 65.330 289.600,65.600 289.870,65.600 290.200 C 65.600 290.530,65.870 290.800,66.200 290.800 C 66.724 290.800,66.800 293.022,66.800 308.400 C 66.800 319.867,66.939 326.000,67.200 326.000 C 67.420 326.000,67.600 326.450,67.600 327.000 C 67.600 327.622,67.827 328.000,68.200 328.000 C 68.633 328.000,68.800 328.444,68.800 329.600 C 68.800 330.480,68.980 331.200,69.200 331.200 C 69.426 331.200,69.600 332.333,69.600 333.800 C 69.600 335.844,69.728 336.400,70.200 336.400 C 70.728 336.400,70.800 340.200,70.800 368.200 L 70.800 400.000 200.600 400.000 L 330.400 400.000 330.400 368.200 C 330.400 347.267,330.537 336.400,330.800 336.400 C 331.026 336.400,331.200 335.267,331.200 333.800 C 331.200 331.756,331.328 331.200,331.800 331.200 C 332.233 331.200,332.400 330.756,332.400 329.600 C 332.400 328.720,332.580 328.000,332.800 328.000 C 333.020 328.000,333.200 327.550,333.200 327.000 C 333.200 326.378,333.427 326.000,333.800 326.000 C 334.324 326.000,334.400 323.778,334.400 308.400 C 334.400 293.022,334.476 290.800,335.000 290.800 C 335.330 290.800,335.600 290.530,335.600 290.200 C 335.600 289.870,335.780 289.600,336.000 289.600 C 336.220 289.600,336.400 289.150,336.400 288.600 C 336.400 287.978,336.627 287.600,337.000 287.600 C 337.330 287.600,337.600 287.330,337.600 287.000 C 337.600 286.627,337.978 286.400,338.600 286.400 C 339.150 286.400,339.600 286.220,339.600 286.000 C 339.600 285.780,339.870 285.600,340.200 285.600 C 340.530 285.600,340.800 285.330,340.800 285.000 C 340.800 284.627,341.178 284.400,341.800 284.400 C 342.422 284.400,342.800 284.173,342.800 283.800 C 342.800 283.427,343.178 283.200,343.800 283.200 C 344.350 283.200,344.800 283.020,344.800 282.800 C 344.800 282.580,345.070 282.400,345.400 282.400 C 345.730 282.400,346.000 282.207,346.000 281.971 C 346.000 281.418,347.018 280.400,347.571 280.400 C 347.807 280.400,348.000 280.130,348.000 279.800 C 348.000 279.470,348.180 279.200,348.400 279.200 C 348.620 279.200,348.800 278.930,348.800 278.600 C 348.800 278.270,349.070 278.000,349.400 278.000 C 349.773 278.000,350.000 277.622,350.000 277.000 C 350.000 276.378,350.227 276.000,350.600 276.000 C 351.124 276.000,351.200 273.822,351.200 258.800 C 351.200 243.778,351.124 241.600,350.600 241.600 C 350.227 241.600,350.000 241.222,350.000 240.600 C 350.000 239.978,349.773 239.600,349.400 239.600 C 349.070 239.600,348.800 239.407,348.800 239.171 C 348.800 238.618,347.782 237.600,347.229 237.600 C 346.993 237.600,346.800 237.407,346.800 237.171 C 346.800 236.618,345.782 235.600,345.229 235.600 C 344.993 235.600,344.800 235.330,344.800 235.000 C 344.800 234.627,344.422 234.400,343.800 234.400 C 343.178 234.400,342.800 234.173,342.800 233.800 C 342.800 233.427,342.422 233.200,341.800 233.200 C 341.250 233.200,340.800 233.020,340.800 232.800 C 340.800 232.580,340.530 232.400,340.200 232.400 C 339.870 232.400,339.600 232.130,339.600 231.800 C 339.600 231.427,339.222 231.200,338.600 231.200 C 338.050 231.200,337.600 231.020,337.600 230.800 C 337.600 230.580,337.330 230.400,337.000 230.400 C 336.622 230.400,336.400 230.019,336.400 229.371 C 336.400 228.317,335.592 227.200,334.829 227.200 C 334.593 227.200,334.400 226.750,334.400 226.200 C 334.400 225.578,334.173 225.200,333.800 225.200 C 333.422 225.200,333.200 224.819,333.200 224.171 C 333.200 223.117,332.392 222.000,331.629 222.000 C 331.393 222.000,331.200 221.730,331.200 221.400 C 331.200 221.070,331.020 220.800,330.800 220.800 C 330.580 220.800,330.400 220.530,330.400 220.200 C 330.400 219.870,330.130 219.600,329.800 219.600 C 329.470 219.600,329.200 219.420,329.200 219.200 C 329.200 218.980,328.930 218.800,328.600 218.800 C 328.270 218.800,328.000 218.530,328.000 218.200 C 328.000 217.827,327.622 217.600,327.000 217.600 C 326.450 217.600,326.000 217.420,326.000 217.200 C 326.000 216.934,283.933 216.800,200.600 216.800 C 117.267 216.800,75.200 216.934,75.200 217.200 M311.600 247.400 C 311.600 247.819,312.022 248.000,313.000 248.000 C 313.770 248.000,314.400 248.180,314.400 248.400 C 314.400 248.620,314.670 248.800,315.000 248.800 C 315.330 248.800,315.600 249.070,315.600 249.400 C 315.600 249.730,315.870 250.000,316.200 250.000 C 316.530 250.000,316.800 250.193,316.800 250.429 C 316.800 250.982,317.818 252.000,318.371 252.000 C 318.607 252.000,318.800 252.270,318.800 252.600 C 318.800 252.930,318.980 253.200,319.200 253.200 C 319.420 253.200,319.600 253.920,319.600 254.800 C 319.600 255.956,319.767 256.400,320.200 256.400 C 320.731 256.400,320.800 263.422,320.800 317.200 C 320.800 370.978,320.731 378.000,320.200 378.000 C 319.767 378.000,319.600 378.444,319.600 379.600 C 319.600 380.480,319.420 381.200,319.200 381.200 C 318.980 381.200,318.800 381.470,318.800 381.800 C 318.800 382.130,318.607 382.400,318.371 382.400 C 317.818 382.400,316.800 383.418,316.800 383.971 C 316.800 384.207,316.530 384.400,316.200 384.400 C 315.870 384.400,315.600 384.670,315.600 385.000 C 315.600 385.330,315.330 385.600,315.000 385.600 C 314.670 385.600,314.400 385.780,314.400 386.000 C 314.400 386.220,313.770 386.400,313.000 386.400 C 312.022 386.400,311.600 386.581,311.600 387.000 C 311.600 387.532,299.000 387.600,200.600 387.600 C 102.200 387.600,89.600 387.532,89.600 387.000 C 89.600 386.579,89.175 386.400,88.171 386.400 C 86.774 386.400,85.600 385.683,85.600 384.829 C 85.600 384.593,85.330 384.400,85.000 384.400 C 84.670 384.400,84.400 384.130,84.400 383.800 C 84.400 383.470,84.207 383.200,83.971 383.200 C 83.418 383.200,82.400 382.182,82.400 381.629 C 82.400 381.393,82.130 381.200,81.800 381.200 C 81.367 381.200,81.200 380.756,81.200 379.600 C 81.200 378.720,81.020 378.000,80.800 378.000 C 80.535 378.000,80.400 357.467,80.400 317.200 C 80.400 276.933,80.535 256.400,80.800 256.400 C 81.020 256.400,81.200 255.680,81.200 254.800 C 81.200 253.644,81.367 253.200,81.800 253.200 C 82.130 253.200,82.400 253.007,82.400 252.771 C 82.400 252.218,83.418 251.200,83.971 251.200 C 84.207 251.200,84.400 250.930,84.400 250.600 C 84.400 250.270,84.670 250.000,85.000 250.000 C 85.330 250.000,85.600 249.807,85.600 249.571 C 85.600 248.717,86.774 248.000,88.171 248.000 C 89.175 248.000,89.600 247.821,89.600 247.400 C 89.600 246.868,102.200 246.800,200.600 246.800 C 299.000 246.800,311.600 246.868,311.600 247.400 " stroke="none" fill="#040404" fill-rule="evenodd"></path><path id="path2" d="M74.000 31.800 C 74.000 32.173,73.622 32.400,73.000 32.400 C 72.450 32.400,72.000 32.580,72.000 32.800 C 72.000 33.020,71.460 33.200,70.800 33.200 C 70.000 33.200,69.600 33.400,69.600 33.800 C 69.600 34.130,69.420 34.400,69.200 34.400 C 68.980 34.400,68.800 34.670,68.800 35.000 C 68.800 35.330,68.607 35.600,68.371 35.600 C 67.666 35.600,66.800 36.686,66.800 37.571 C 66.800 38.041,66.540 38.400,66.200 38.400 C 65.800 38.400,65.600 38.800,65.600 39.600 C 65.600 40.400,65.400 40.800,65.000 40.800 C 64.473 40.800,64.400 44.000,64.400 67.200 C 64.400 84.533,64.263 93.600,64.000 93.600 C 63.780 93.600,63.600 94.590,63.600 95.800 C 63.600 97.489,63.461 98.000,63.000 98.000 C 62.627 98.000,62.400 98.378,62.400 99.000 C 62.400 99.550,62.220 100.000,62.000 100.000 C 61.780 100.000,61.600 100.270,61.600 100.600 C 61.600 100.930,61.330 101.200,61.000 101.200 C 60.670 101.200,60.400 101.380,60.400 101.600 C 60.400 101.820,60.130 102.000,59.800 102.000 C 59.470 102.000,59.200 102.270,59.200 102.600 C 59.200 103.128,55.644 103.200,29.600 103.200 L 0.000 103.200 0.000 217.200 L 0.000 331.200 29.600 331.200 C 55.644 331.200,59.200 331.272,59.200 331.800 C 59.200 332.130,59.470 332.400,59.800 332.400 C 60.173 332.400,60.400 332.778,60.400 333.400 C 60.400 334.022,60.627 334.400,61.000 334.400 C 61.373 334.400,61.600 334.778,61.600 335.400 C 61.600 335.950,61.780 336.400,62.000 336.400 C 62.220 336.400,62.400 336.850,62.400 337.400 C 62.400 338.022,62.627 338.400,63.000 338.400 C 63.433 338.400,63.600 338.844,63.600 340.000 C 63.600 340.880,63.780 341.600,64.000 341.600 C 64.263 341.600,64.400 351.600,64.400 370.800 L 64.400 400.000 67.600 400.000 L 70.800 400.000 70.800 368.200 C 70.800 340.200,70.728 336.400,70.200 336.400 C 69.728 336.400,69.600 335.844,69.600 333.800 C 69.600 332.333,69.426 331.200,69.200 331.200 C 68.980 331.200,68.800 330.480,68.800 329.600 C 68.800 328.444,68.633 328.000,68.200 328.000 C 67.827 328.000,67.600 327.622,67.600 327.000 C 67.600 326.450,67.420 326.000,67.200 326.000 C 66.939 326.000,66.800 319.867,66.800 308.400 C 66.800 293.022,66.724 290.800,66.200 290.800 C 65.870 290.800,65.600 290.530,65.600 290.200 C 65.600 289.870,65.330 289.600,65.000 289.600 C 64.627 289.600,64.400 289.222,64.400 288.600 C 64.400 288.050,64.220 287.600,64.000 287.600 C 63.780 287.600,63.600 287.330,63.600 287.000 C 63.600 286.627,63.222 286.400,62.600 286.400 C 62.050 286.400,61.600 286.220,61.600 286.000 C 61.600 285.780,61.330 285.600,61.000 285.600 C 60.670 285.600,60.400 285.330,60.400 285.000 C 60.400 284.627,60.022 284.400,59.400 284.400 C 58.778 284.400,58.400 284.173,58.400 283.800 C 58.400 283.427,58.022 283.200,57.400 283.200 C 56.850 283.200,56.400 283.020,56.400 282.800 C 56.400 282.580,56.130 282.400,55.800 282.400 C 55.470 282.400,55.200 282.130,55.200 281.800 C 55.200 281.470,55.007 281.200,54.771 281.200 C 54.218 281.200,53.200 280.182,53.200 279.629 C 53.200 279.393,52.930 279.200,52.600 279.200 C 52.270 279.200,52.000 278.930,52.000 278.600 C 52.000 278.270,51.820 278.000,51.600 278.000 C 51.380 278.000,51.200 277.550,51.200 277.000 C 51.200 276.378,50.973 276.000,50.600 276.000 C 50.076 276.000,50.000 273.822,50.000 258.800 C 50.000 243.778,50.076 241.600,50.600 241.600 C 50.973 241.600,51.200 241.222,51.200 240.600 C 51.200 240.050,51.380 239.600,51.600 239.600 C 51.820 239.600,52.000 239.330,52.000 239.000 C 52.000 238.670,52.193 238.400,52.429 238.400 C 52.982 238.400,54.000 237.382,54.000 236.829 C 54.000 236.593,54.270 236.400,54.600 236.400 C 54.930 236.400,55.200 236.220,55.200 236.000 C 55.200 235.780,55.470 235.600,55.800 235.600 C 56.130 235.600,56.400 235.330,56.400 235.000 C 56.400 234.627,56.778 234.400,57.400 234.400 C 58.022 234.400,58.400 234.173,58.400 233.800 C 58.400 233.427,58.778 233.200,59.400 233.200 C 59.950 233.200,60.400 233.020,60.400 232.800 C 60.400 232.580,60.670 232.400,61.000 232.400 C 61.330 232.400,61.600 232.130,61.600 231.800 C 61.600 231.460,61.959 231.200,62.429 231.200 C 63.556 231.200,64.400 230.270,64.400 229.029 C 64.400 228.381,64.622 228.000,65.000 228.000 C 65.330 228.000,65.600 227.820,65.600 227.600 C 65.600 227.380,65.870 227.200,66.200 227.200 C 66.573 227.200,66.800 226.822,66.800 226.200 C 66.800 225.650,66.980 225.200,67.200 225.200 C 67.420 225.200,67.600 224.660,67.600 224.000 C 67.600 223.340,67.793 222.800,68.029 222.800 C 68.582 222.800,69.600 221.782,69.600 221.229 C 69.600 220.993,69.870 220.800,70.200 220.800 C 70.530 220.800,70.800 220.530,70.800 220.200 C 70.800 219.870,70.993 219.600,71.229 219.600 C 71.782 219.600,72.800 218.582,72.800 218.029 C 72.800 217.793,73.340 217.600,74.000 217.600 C 74.660 217.600,75.200 217.420,75.200 217.200 C 75.200 216.934,117.267 216.800,200.600 216.800 C 283.933 216.800,326.000 216.934,326.000 217.200 C 326.000 217.420,326.450 217.600,327.000 217.600 C 327.622 217.600,328.000 217.827,328.000 218.200 C 328.000 218.530,328.270 218.800,328.600 218.800 C 328.930 218.800,329.200 218.980,329.200 219.200 C 329.200 219.420,329.470 219.600,329.800 219.600 C 330.130 219.600,330.400 219.870,330.400 220.200 C 330.400 220.530,330.580 220.800,330.800 220.800 C 331.020 220.800,331.200 221.070,331.200 221.400 C 331.200 221.730,331.393 222.000,331.629 222.000 C 332.392 222.000,333.200 223.117,333.200 224.171 C 333.200 224.819,333.422 225.200,333.800 225.200 C 334.173 225.200,334.400 225.578,334.400 226.200 C 334.400 226.750,334.593 227.200,334.829 227.200 C 335.592 227.200,336.400 228.317,336.400 229.371 C 336.400 230.019,336.622 230.400,337.000 230.400 C 337.330 230.400,337.600 230.580,337.600 230.800 C 337.600 231.020,338.050 231.200,338.600 231.200 C 339.222 231.200,339.600 231.427,339.600 231.800 C 339.600 232.130,339.870 232.400,340.200 232.400 C 340.530 232.400,340.800 232.580,340.800 232.800 C 340.800 233.020,341.250 233.200,341.800 233.200 C 342.422 233.200,342.800 233.427,342.800 233.800 C 342.800 234.173,343.178 234.400,343.800 234.400 C 344.422 234.400,344.800 234.627,344.800 235.000 C 344.800 235.330,344.993 235.600,345.229 235.600 C 345.782 235.600,346.800 236.618,346.800 237.171 C 346.800 237.407,346.993 237.600,347.229 237.600 C 347.782 237.600,348.800 238.618,348.800 239.171 C 348.800 239.407,349.070 239.600,349.400 239.600 C 349.773 239.600,350.000 239.978,350.000 240.600 C 350.000 241.222,350.227 241.600,350.600 241.600 C 351.124 241.600,351.200 243.778,351.200 258.800 C 351.200 273.822,351.124 276.000,350.600 276.000 C 350.227 276.000,350.000 276.378,350.000 277.000 C 350.000 277.622,349.773 278.000,349.400 278.000 C 349.070 278.000,348.800 278.270,348.800 278.600 C 348.800 278.930,348.620 279.200,348.400 279.200 C 348.180 279.200,348.000 279.470,348.000 279.800 C 348.000 280.130,347.807 280.400,347.571 280.400 C 347.018 280.400,346.000 281.418,346.000 281.971 C 346.000 282.207,345.730 282.400,345.400 282.400 C 345.070 282.400,344.800 282.580,344.800 282.800 C 344.800 283.020,344.350 283.200,343.800 283.200 C 343.178 283.200,342.800 283.427,342.800 283.800 C 342.800 284.173,342.422 284.400,341.800 284.400 C 341.178 284.400,340.800 284.627,340.800 285.000 C 340.800 285.330,340.530 285.600,340.200 285.600 C 339.870 285.600,339.600 285.780,339.600 286.000 C 339.600 286.220,339.150 286.400,338.600 286.400 C 337.978 286.400,337.600 286.627,337.600 287.000 C 337.600 287.330,337.330 287.600,337.000 287.600 C 336.627 287.600,336.400 287.978,336.400 288.600 C 336.400 289.150,336.220 289.600,336.000 289.600 C 335.780 289.600,335.600 289.870,335.600 290.200 C 335.600 290.530,335.330 290.800,335.000 290.800 C 334.476 290.800,334.400 293.022,334.400 308.400 C 334.400 323.778,334.324 326.000,333.800 326.000 C 333.427 326.000,333.200 326.378,333.200 327.000 C 333.200 327.550,333.020 328.000,332.800 328.000 C 332.580 328.000,332.400 328.720,332.400 329.600 C 332.400 330.756,332.233 331.200,331.800 331.200 C 331.328 331.200,331.200 331.756,331.200 333.800 C 331.200 335.267,331.026 336.400,330.800 336.400 C 330.537 336.400,330.400 347.267,330.400 368.200 L 330.400 400.000 333.400 400.000 L 336.400 400.000 336.400 370.800 C 336.400 345.111,336.472 341.600,337.000 341.600 C 337.433 341.600,337.600 341.156,337.600 340.000 C 337.600 339.120,337.780 338.400,338.000 338.400 C 338.220 338.400,338.400 337.950,338.400 337.400 C 338.400 336.778,338.627 336.400,339.000 336.400 C 339.373 336.400,339.600 336.022,339.600 335.400 C 339.600 334.778,339.827 334.400,340.200 334.400 C 340.573 334.400,340.800 334.022,340.800 333.400 C 340.800 332.850,340.980 332.400,341.200 332.400 C 341.420 332.400,341.600 332.130,341.600 331.800 C 341.600 331.272,345.111 331.200,370.800 331.200 L 400.000 331.200 400.000 217.200 L 400.000 103.200 370.800 103.200 C 350.302 103.200,341.600 103.072,341.600 102.771 C 341.600 102.218,340.582 101.200,340.029 101.200 C 339.793 101.200,339.600 100.930,339.600 100.600 C 339.600 100.270,339.330 100.000,339.000 100.000 C 338.627 100.000,338.400 99.622,338.400 99.000 C 338.400 98.450,338.220 98.000,338.000 98.000 C 337.780 98.000,337.600 97.010,337.600 95.800 C 337.600 94.111,337.461 93.600,337.000 93.600 C 336.473 93.600,336.400 90.400,336.400 67.200 C 336.400 49.867,336.263 40.800,336.000 40.800 C 335.780 40.800,335.600 40.260,335.600 39.600 C 335.600 38.800,335.400 38.400,335.000 38.400 C 334.627 38.400,334.400 38.022,334.400 37.400 C 334.400 36.850,334.207 36.400,333.971 36.400 C 333.418 36.400,332.400 35.382,332.400 34.829 C 332.400 34.593,332.130 34.400,331.800 34.400 C 331.470 34.400,331.200 34.130,331.200 33.800 C 331.200 33.427,330.822 33.200,330.200 33.200 C 329.650 33.200,329.200 33.020,329.200 32.800 C 329.200 32.580,328.750 32.400,328.200 32.400 C 327.578 32.400,327.200 32.173,327.200 31.800 C 327.200 31.268,312.867 31.200,200.600 31.200 C 88.333 31.200,74.000 31.268,74.000 31.800 M326.000 38.000 C 326.000 38.220,326.270 38.400,326.600 38.400 C 326.930 38.400,327.200 38.670,327.200 39.000 C 327.200 39.330,327.380 39.600,327.600 39.600 C 327.820 39.600,328.000 39.870,328.000 40.200 C 328.000 40.530,328.270 40.800,328.600 40.800 C 328.930 40.800,329.200 40.980,329.200 41.200 C 329.200 41.420,329.470 41.600,329.800 41.600 C 330.327 41.600,330.400 44.711,330.400 67.200 C 330.400 89.689,330.327 92.800,329.800 92.800 C 329.367 92.800,329.200 93.244,329.200 94.400 C 329.200 95.556,329.033 96.000,328.600 96.000 C 328.227 96.000,328.000 96.378,328.000 97.000 C 328.000 97.550,327.820 98.000,327.600 98.000 C 327.380 98.000,327.200 98.450,327.200 99.000 C 327.200 99.622,326.973 100.000,326.600 100.000 C 326.270 100.000,326.000 100.270,326.000 100.600 C 326.000 101.132,311.800 101.200,200.600 101.200 C 89.400 101.200,75.200 101.132,75.200 100.600 C 75.200 100.270,74.930 100.000,74.600 100.000 C 74.227 100.000,74.000 99.622,74.000 99.000 C 74.000 98.378,73.773 98.000,73.400 98.000 C 73.027 98.000,72.800 97.622,72.800 97.000 C 72.800 96.450,72.620 96.000,72.400 96.000 C 72.180 96.000,72.000 95.280,72.000 94.400 C 72.000 93.244,71.833 92.800,71.400 92.800 C 70.873 92.800,70.800 89.689,70.800 67.200 C 70.800 49.262,70.928 41.600,71.229 41.600 C 71.782 41.600,72.800 40.582,72.800 40.029 C 72.800 39.793,73.070 39.600,73.400 39.600 C 73.730 39.600,74.000 39.330,74.000 39.000 C 74.000 38.670,74.270 38.400,74.600 38.400 C 74.930 38.400,75.200 38.220,75.200 38.000 C 75.200 37.734,117.267 37.600,200.600 37.600 C 283.933 37.600,326.000 37.734,326.000 38.000 M89.600 247.400 C 89.600 247.821,89.175 248.000,88.171 248.000 C 86.774 248.000,85.600 248.717,85.600 249.571 C 85.600 249.807,85.330 250.000,85.000 250.000 C 84.670 250.000,84.400 250.270,84.400 250.600 C 84.400 250.930,84.207 251.200,83.971 251.200 C 83.418 251.200,82.400 252.218,82.400 252.771 C 82.400 253.007,82.130 253.200,81.800 253.200 C 81.367 253.200,81.200 253.644,81.200 254.800 C 81.200 255.680,81.020 256.400,80.800 256.400 C 80.535 256.400,80.400 276.933,80.400 317.200 C 80.400 357.467,80.535 378.000,80.800 378.000 C 81.020 378.000,81.200 378.720,81.200 379.600 C 81.200 380.756,81.367 381.200,81.800 381.200 C 82.130 381.200,82.400 381.393,82.400 381.629 C 82.400 382.182,83.418 383.200,83.971 383.200 C 84.207 383.200,84.400 383.470,84.400 383.800 C 84.400 384.130,84.670 384.400,85.000 384.400 C 85.330 384.400,85.600 384.593,85.600 384.829 C 85.600 385.683,86.774 386.400,88.171 386.400 C 89.175 386.400,89.600 386.579,89.600 387.000 C 89.600 387.532,102.200 387.600,200.600 387.600 C 299.000 387.600,311.600 387.532,311.600 387.000 C 311.600 386.581,312.022 386.400,313.000 386.400 C 313.770 386.400,314.400 386.220,314.400 386.000 C 314.400 385.780,314.670 385.600,315.000 385.600 C 315.330 385.600,315.600 385.330,315.600 385.000 C 315.600 384.670,315.870 384.400,316.200 384.400 C 316.530 384.400,316.800 384.207,316.800 383.971 C 316.800 383.418,317.818 382.400,318.371 382.400 C 318.607 382.400,318.800 382.130,318.800 381.800 C 318.800 381.470,318.980 381.200,319.200 381.200 C 319.420 381.200,319.600 380.480,319.600 379.600 C 319.600 378.444,319.767 378.000,320.200 378.000 C 320.731 378.000,320.800 370.978,320.800 317.200 C 320.800 263.422,320.731 256.400,320.200 256.400 C 319.767 256.400,319.600 255.956,319.600 254.800 C 319.600 253.920,319.420 253.200,319.200 253.200 C 318.980 253.200,318.800 252.930,318.800 252.600 C 318.800 252.270,318.607 252.000,318.371 252.000 C 317.818 252.000,316.800 250.982,316.800 250.429 C 316.800 250.193,316.530 250.000,316.200 250.000 C 315.870 250.000,315.600 249.730,315.600 249.400 C 315.600 249.070,315.330 248.800,315.000 248.800 C 314.670 248.800,314.400 248.620,314.400 248.400 C 314.400 248.180,313.770 248.000,313.000 248.000 C 312.022 248.000,311.600 247.819,311.600 247.400 C 311.600 246.868,299.000 246.800,200.600 246.800 C 102.200 246.800,89.600 246.868,89.600 247.400 M309.200 253.600 C 309.200 253.820,309.470 254.000,309.800 254.000 C 310.130 254.000,310.400 254.270,310.400 254.600 C 310.400 254.930,310.670 255.200,311.000 255.200 C 311.330 255.200,311.600 255.393,311.600 255.629 C 311.600 256.182,312.618 257.200,313.171 257.200 C 313.407 257.200,313.600 257.470,313.600 257.800 C 313.600 258.130,313.780 258.400,314.000 258.400 C 314.265 258.400,314.400 278.267,314.400 317.200 C 314.400 356.133,314.265 376.000,314.000 376.000 C 313.780 376.000,313.600 376.270,313.600 376.600 C 313.600 376.930,313.407 377.200,313.171 377.200 C 312.618 377.200,311.600 378.218,311.600 378.771 C 311.600 379.007,311.330 379.200,311.000 379.200 C 310.670 379.200,310.400 379.470,310.400 379.800 C 310.400 380.130,310.130 380.400,309.800 380.400 C 309.470 380.400,309.200 380.580,309.200 380.800 C 309.200 381.066,272.724 381.200,200.571 381.200 C 86.333 381.200,90.800 381.264,90.800 379.629 C 90.800 379.393,90.530 379.200,90.200 379.200 C 89.870 379.200,89.600 378.930,89.600 378.600 C 89.600 378.270,89.407 378.000,89.171 378.000 C 88.618 378.000,87.600 376.982,87.600 376.429 C 87.600 376.193,87.330 376.000,87.000 376.000 C 86.469 376.000,86.400 369.200,86.400 317.200 C 86.400 265.200,86.469 258.400,87.000 258.400 C 87.330 258.400,87.600 258.207,87.600 257.971 C 87.600 257.418,88.618 256.400,89.171 256.400 C 89.407 256.400,89.600 256.130,89.600 255.800 C 89.600 255.470,89.870 255.200,90.200 255.200 C 90.530 255.200,90.800 255.012,90.800 254.783 C 90.800 253.168,86.368 253.231,200.500 253.215 C 272.710 253.205,309.200 253.334,309.200 253.600 " stroke="none" fill="#7c7c7c" fill-rule="evenodd"></path><path id="path3" d="M75.200 29.800 C 75.200 30.233,74.756 30.400,73.600 30.400 C 72.720 30.400,72.000 30.580,72.000 30.800 C 72.000 31.020,71.460 31.200,70.800 31.200 C 70.000 31.200,69.600 31.400,69.600 31.800 C 69.600 32.140,69.241 32.400,68.771 32.400 C 67.886 32.400,66.800 33.266,66.800 33.971 C 66.800 34.207,66.530 34.400,66.200 34.400 C 65.827 34.400,65.600 34.778,65.600 35.400 C 65.600 36.022,65.373 36.400,65.000 36.400 C 64.627 36.400,64.400 36.778,64.400 37.400 C 64.400 37.950,64.220 38.400,64.000 38.400 C 63.780 38.400,63.600 39.120,63.600 40.000 C 63.600 41.156,63.433 41.600,63.000 41.600 C 62.473 41.600,62.400 44.822,62.400 68.200 C 62.400 85.667,62.263 94.800,62.000 94.800 C 61.780 94.800,61.600 95.520,61.600 96.400 C 61.600 97.556,61.433 98.000,61.000 98.000 C 60.670 98.000,60.400 98.180,60.400 98.400 C 60.400 98.620,60.130 98.800,59.800 98.800 C 59.470 98.800,59.200 99.070,59.200 99.400 C 59.200 99.928,55.644 100.000,29.600 100.000 L 0.000 100.000 0.000 101.600 L 0.000 103.200 29.600 103.200 C 55.644 103.200,59.200 103.128,59.200 102.600 C 59.200 102.270,59.470 102.000,59.800 102.000 C 60.130 102.000,60.400 101.820,60.400 101.600 C 60.400 101.380,60.670 101.200,61.000 101.200 C 61.330 101.200,61.600 100.930,61.600 100.600 C 61.600 100.270,61.780 100.000,62.000 100.000 C 62.220 100.000,62.400 99.550,62.400 99.000 C 62.400 98.378,62.627 98.000,63.000 98.000 C 63.461 98.000,63.600 97.489,63.600 95.800 C 63.600 94.590,63.780 93.600,64.000 93.600 C 64.263 93.600,64.400 84.533,64.400 67.200 C 64.400 44.000,64.473 40.800,65.000 40.800 C 65.400 40.800,65.600 40.400,65.600 39.600 C 65.600 38.800,65.800 38.400,66.200 38.400 C 66.540 38.400,66.800 38.041,66.800 37.571 C 66.800 36.686,67.666 35.600,68.371 35.600 C 68.607 35.600,68.800 35.330,68.800 35.000 C 68.800 34.670,68.980 34.400,69.200 34.400 C 69.420 34.400,69.600 34.130,69.600 33.800 C 69.600 33.400,70.000 33.200,70.800 33.200 C 71.460 33.200,72.000 33.020,72.000 32.800 C 72.000 32.580,72.450 32.400,73.000 32.400 C 73.622 32.400,74.000 32.173,74.000 31.800 C 74.000 31.268,88.333 31.200,200.600 31.200 C 312.867 31.200,327.200 31.268,327.200 31.800 C 327.200 32.173,327.578 32.400,328.200 32.400 C 328.750 32.400,329.200 32.580,329.200 32.800 C 329.200 33.020,329.650 33.200,330.200 33.200 C 330.822 33.200,331.200 33.427,331.200 33.800 C 331.200 34.130,331.470 34.400,331.800 34.400 C 332.130 34.400,332.400 34.593,332.400 34.829 C 332.400 35.382,333.418 36.400,333.971 36.400 C 334.207 36.400,334.400 36.850,334.400 37.400 C 334.400 38.022,334.627 38.400,335.000 38.400 C 335.400 38.400,335.600 38.800,335.600 39.600 C 335.600 40.260,335.780 40.800,336.000 40.800 C 336.263 40.800,336.400 49.867,336.400 67.200 C 336.400 90.400,336.473 93.600,337.000 93.600 C 337.461 93.600,337.600 94.111,337.600 95.800 C 337.600 97.010,337.780 98.000,338.000 98.000 C 338.220 98.000,338.400 98.450,338.400 99.000 C 338.400 99.622,338.627 100.000,339.000 100.000 C 339.330 100.000,339.600 100.270,339.600 100.600 C 339.600 100.930,339.793 101.200,340.029 101.200 C 340.582 101.200,341.600 102.218,341.600 102.771 C 341.600 103.072,350.302 103.200,370.800 103.200 L 400.000 103.200 400.000 101.600 L 400.000 100.000 370.800 100.000 C 350.302 100.000,341.600 99.872,341.600 99.571 C 341.600 99.018,340.582 98.000,340.029 98.000 C 339.793 98.000,339.600 97.280,339.600 96.400 C 339.600 95.244,339.433 94.800,339.000 94.800 C 338.473 94.800,338.400 91.578,338.400 68.200 C 338.400 50.733,338.263 41.600,338.000 41.600 C 337.780 41.600,337.600 40.880,337.600 40.000 C 337.600 38.844,337.433 38.400,337.000 38.400 C 336.627 38.400,336.400 38.022,336.400 37.400 C 336.400 36.850,336.220 36.400,336.000 36.400 C 335.780 36.400,335.600 35.950,335.600 35.400 C 335.600 34.778,335.373 34.400,335.000 34.400 C 334.670 34.400,334.400 34.130,334.400 33.800 C 334.400 33.470,334.130 33.200,333.800 33.200 C 333.470 33.200,333.200 33.020,333.200 32.800 C 333.200 32.580,332.750 32.400,332.200 32.400 C 331.578 32.400,331.200 32.173,331.200 31.800 C 331.200 31.427,330.822 31.200,330.200 31.200 C 329.650 31.200,329.200 31.020,329.200 30.800 C 329.200 30.580,328.480 30.400,327.600 30.400 C 326.444 30.400,326.000 30.233,326.000 29.800 C 326.000 29.268,311.800 29.200,200.600 29.200 C 89.400 29.200,75.200 29.268,75.200 29.800 M91.300 253.798 C 91.025 254.111,90.800 254.554,90.800 254.783 C 90.800 255.012,90.530 255.200,90.200 255.200 C 89.870 255.200,89.600 255.470,89.600 255.800 C 89.600 256.130,89.407 256.400,89.171 256.400 C 88.618 256.400,87.600 257.418,87.600 257.971 C 87.600 258.207,87.330 258.400,87.000 258.400 C 86.469 258.400,86.400 265.200,86.400 317.200 C 86.400 369.200,86.469 376.000,87.000 376.000 C 87.330 376.000,87.600 376.193,87.600 376.429 C 87.600 376.982,88.618 378.000,89.171 378.000 C 89.407 378.000,89.600 378.270,89.600 378.600 C 89.600 378.930,89.870 379.200,90.200 379.200 C 90.530 379.200,90.800 379.393,90.800 379.629 C 90.800 381.264,86.333 381.200,200.571 381.200 C 272.724 381.200,309.200 381.066,309.200 380.800 C 309.200 380.580,309.470 380.400,309.800 380.400 C 310.130 380.400,310.400 380.130,310.400 379.800 C 310.400 379.470,310.670 379.200,311.000 379.200 C 311.330 379.200,311.600 379.007,311.600 378.771 C 311.600 378.218,312.618 377.200,313.171 377.200 C 313.407 377.200,313.600 376.930,313.600 376.600 C 313.600 376.270,313.780 376.000,314.000 376.000 C 314.265 376.000,314.400 356.133,314.400 317.200 C 314.400 278.267,314.265 258.400,314.000 258.400 C 313.780 258.400,313.600 258.130,313.600 257.800 C 313.600 257.470,313.407 257.200,313.171 257.200 C 312.618 257.200,311.600 256.182,311.600 255.629 C 311.600 255.393,311.330 255.200,311.000 255.200 C 310.670 255.200,310.400 254.930,310.400 254.600 C 310.400 254.270,310.130 254.000,309.800 254.000 C 309.470 254.000,309.200 253.820,309.200 253.600 C 309.200 252.895,91.921 253.093,91.300 253.798 M310.400 255.800 C 310.400 256.130,310.593 256.400,310.829 256.400 C 312.445 256.400,312.400 254.660,312.400 317.200 C 312.400 379.740,312.445 378.000,310.829 378.000 C 310.593 378.000,310.400 378.270,310.400 378.600 C 310.400 379.132,297.933 379.200,200.600 379.200 C 103.267 379.200,90.800 379.132,90.800 378.600 C 90.800 378.270,90.530 378.000,90.200 378.000 C 89.870 378.000,89.600 377.820,89.600 377.600 C 89.600 377.380,89.330 377.200,89.000 377.200 C 88.469 377.200,88.400 370.267,88.400 317.200 C 88.400 264.133,88.469 257.200,89.000 257.200 C 89.330 257.200,89.600 257.020,89.600 256.800 C 89.600 256.580,89.870 256.400,90.200 256.400 C 90.530 256.400,90.800 256.130,90.800 255.800 C 90.800 255.268,103.267 255.200,200.600 255.200 C 297.933 255.200,310.400 255.268,310.400 255.800 M0.000 332.800 L 0.000 334.400 29.600 334.400 C 55.644 334.400,59.200 334.472,59.200 335.000 C 59.200 335.330,59.470 335.600,59.800 335.600 C 60.173 335.600,60.400 335.978,60.400 336.600 C 60.400 337.222,60.627 337.600,61.000 337.600 C 61.373 337.600,61.600 337.978,61.600 338.600 C 61.600 339.150,61.780 339.600,62.000 339.600 C 62.263 339.600,62.400 349.933,62.400 369.800 L 62.400 400.000 63.400 400.000 L 64.400 400.000 64.400 370.800 C 64.400 351.600,64.263 341.600,64.000 341.600 C 63.780 341.600,63.600 340.880,63.600 340.000 C 63.600 338.844,63.433 338.400,63.000 338.400 C 62.627 338.400,62.400 338.022,62.400 337.400 C 62.400 336.850,62.220 336.400,62.000 336.400 C 61.780 336.400,61.600 335.950,61.600 335.400 C 61.600 334.778,61.373 334.400,61.000 334.400 C 60.627 334.400,60.400 334.022,60.400 333.400 C 60.400 332.778,60.173 332.400,59.800 332.400 C 59.470 332.400,59.200 332.130,59.200 331.800 C 59.200 331.272,55.644 331.200,29.600 331.200 L 0.000 331.200 0.000 332.800 M341.600 331.800 C 341.600 332.130,341.420 332.400,341.200 332.400 C 340.980 332.400,340.800 332.850,340.800 333.400 C 340.800 334.022,340.573 334.400,340.200 334.400 C 339.827 334.400,339.600 334.778,339.600 335.400 C 339.600 336.022,339.373 336.400,339.000 336.400 C 338.627 336.400,338.400 336.778,338.400 337.400 C 338.400 337.950,338.220 338.400,338.000 338.400 C 337.780 338.400,337.600 339.120,337.600 340.000 C 337.600 341.156,337.433 341.600,337.000 341.600 C 336.472 341.600,336.400 345.111,336.400 370.800 L 336.400 400.000 337.400 400.000 L 338.400 400.000 338.400 369.800 C 338.400 343.222,338.472 339.600,339.000 339.600 C 339.373 339.600,339.600 339.222,339.600 338.600 C 339.600 337.978,339.827 337.600,340.200 337.600 C 340.573 337.600,340.800 337.222,340.800 336.600 C 340.800 336.050,340.980 335.600,341.200 335.600 C 341.420 335.600,341.600 335.330,341.600 335.000 C 341.600 334.472,345.111 334.400,370.800 334.400 L 400.000 334.400 400.000 332.800 L 400.000 331.200 370.800 331.200 C 345.111 331.200,341.600 331.272,341.600 331.800 " stroke="none" fill="#60bcc0" fill-rule="evenodd"></path><path id="path4" d="" stroke="none" fill="#e010080" fill-rule="evenodd"></path><path id="path5" d="" stroke="none" fill="#e010080" fill-rule="evenodd"></path><path id="path6" d="" stroke="none" fill="#e010080" fill-rule="evenodd"></path><path id="path7" d="" stroke="none" fill="#e010080" fill-rule="evenodd"></path><path id="path8" d="" stroke="none" fill="#e010080" fill-rule="evenodd"></path></g></svg>